<?xml version="1.0" encoding="utf-8"?>
<!-- Generator: Adobe Illustrator 14.0.0, SVG Export Plug-In . SVG Version: 6.00 Build 43363)  -->
<!DOCTYPE svg PUBLIC "-//W3C//DTD SVG 1.1//EN" "http://www.w3.org/Graphics/SVG/1.1/DTD/svg11.dtd">
<svg version="1.1" id="Layer_1" xmlns="http://www.w3.org/2000/svg" xmlns:xlink="http://www.w3.org/1999/xlink" x="0px" y="0px"
	 width="56px" height="40px" viewBox="-3 5 56 40" enable-background="new -3 5 56 40" xml:space="preserve">
<g id="svg_6">
	<path id="svg_7" d="M-2.989,25.021C-3.336,15.742,4.697,7.167,13.882,7.055c4.681-0.404,9.234,1.435,12.775,4.434
		c-1.452,1.616-2.931,3.213-4.51,4.708c-3.119-1.917-6.873-3.376-10.517-2.08c-5.878,1.693-9.438,8.713-7.263,14.531
		c1.802,6.074,9.106,9.409,14.831,6.857c2.964-1.073,4.918-3.842,5.776-6.813c-3.396-0.072-6.796-0.027-10.192-0.122
		c-0.009-2.044-0.019-4.082-0.009-6.128c5.666-0.007,11.339-0.024,17.014,0.028c0.348,5.009-0.383,10.371-3.602,14.392
		c-4.409,5.741-12.556,7.426-19.181,5.173C1.973,39.699-3.142,32.532-2.989,25.021z"/>
	<path id="svg_8" d="M42.831,17.289c1.683,0,3.364,0,5.056,0c0.009,1.71,0.023,3.429,0.033,5.137
		c1.689,0.017,3.389,0.025,5.08,0.035c0,1.71,0,3.41,0,5.121c-1.691,0.009-3.389,0.018-5.08,0.023
		c-0.016,1.723-0.024,3.431-0.033,5.15c-1.691-0.009-3.383,0-5.065,0c-0.017-1.72-0.017-3.428-0.033-5.141
		c-1.688-0.016-3.389-0.024-5.079-0.033c0-1.711,0-3.411,0-5.122c1.69-0.008,3.382-0.018,5.079-0.035
		C42.797,20.718,42.813,18.999,42.831,17.289z"/>
</g>
</svg>
