<?xml version="1.0" encoding="utf-8"?>
<!-- Generator: Adobe Illustrator 14.0.0, SVG Export Plug-In . SVG Version: 6.00 Build 43363)  -->
<!DOCTYPE svg PUBLIC "-//W3C//DTD SVG 1.1//EN" "http://www.w3.org/Graphics/SVG/1.1/DTD/svg11.dtd">
<svg version="1.1" id="Layer_1" xmlns="http://www.w3.org/2000/svg" xmlns:xlink="http://www.w3.org/1999/xlink" x="0px" y="0px"
	 width="50px" height="45px" viewBox="0 0 50 45" enable-background="new 0 0 50 45" xml:space="preserve">
<g>
	<g>
		<path d="M10.322,6.843c0.229-4.009,3.671-7.06,7.711-6.831c4.036,0.227,7.11,3.642,6.882,7.65
			c-0.228,4.005-3.679,7.182-7.717,6.956C13.158,14.393,10.095,10.849,10.322,6.843"/>
		<path d="M30.68,32.537c-1.007-0.057-1.886-0.507-2.547-1.245l-9.149-8.404c-1.172-0.66-1.899-2.003-1.821-3.392
			c0.098-1.693,1.281-3.027,2.917-3.438l11.737-4.531c2.006,0.111,3.613,1.9,3.497,3.987c-0.1,1.693-1.178,3.034-2.716,3.448
			l-4.737,1.832l3.775,3.802l8.615-1.015l6.141,1.15c0.6,0.033,1.098,0.159,1.487,0.382c1.372,0.676,2.203,2.021,2.114,3.611
			c-0.12,2.088-1.918,3.588-4.027,3.468l-6.122-1.44L30.68,32.537"/>
	</g>
</g>
<path d="M39.904,33.389c-3.264,0.946-6.871,2.19-10.297,2.199c-1.395,0.002-2.633-1.193-3.647-2.012
	c-1.988-1.603-9.836-6.922-15.032-17.425C9.59,13.444,6.665,4.979,5.993,3.801C5.479,2.197,3.763,1.16,2.108,1.744
	C0.549,2.293,0.011,3.822,0,5.261c-0.012,1.438,3.555,11.616,5.749,17.115c2.337,5.86,5.935,11.31,9.855,16.246
	c1.5,1.888,3.258,4.276,5.507,5.349c3.708,1.771,6.772,1.005,10.379-0.402c5.896-2.302,11.592-4.652,17.064-7.865L39.904,33.389"/>
</svg>
