<?xml version="1.0" encoding="utf-8"?>
<!-- Generator: Adobe Illustrator 14.0.0, SVG Export Plug-In . SVG Version: 6.00 Build 43363)  -->
<!DOCTYPE svg PUBLIC "-//W3C//DTD SVG 1.1//EN" "http://www.w3.org/Graphics/SVG/1.1/DTD/svg11.dtd">
<svg version="1.1" id="Layer_1" xmlns="http://www.w3.org/2000/svg" xmlns:xlink="http://www.w3.org/1999/xlink" x="0px" y="0px"
	 width="56px" height="40px" viewBox="-3 5 56 40" enable-background="new -3 5 56 40" xml:space="preserve">
<path d="M29.208,34.065c2.119-0.476,4.158-1.313,6.036-2.483c1.422-0.891,1.85-2.755,0.954-4.172
	c-0.896-1.417-2.772-1.843-4.198-0.953c-4.263,2.66-9.74,2.656-13.998,0c-1.426-0.89-3.304-0.464-4.201,0.953
	c-0.897,1.414-0.467,3.281,0.955,4.172c1.878,1.17,3.916,2.005,6.036,2.483l-5.806,5.771c-1.191,1.183-1.191,3.093,0,4.277
	c0.598,0.589,1.375,0.885,2.15,0.885c0.783,0,1.558-0.296,2.156-0.885l5.71-5.674l5.712,5.674c1.189,1.181,3.118,1.181,4.308,0
	c1.19-1.185,1.19-3.101,0-4.277L29.208,34.065 M25.001,11.051c2.376,0,4.307,1.916,4.307,4.275c0,2.354-1.932,4.271-4.307,4.271
	c-2.371,0-4.307-1.917-4.307-4.271C20.695,12.968,22.63,11.051,25.001,11.051L25.001,11.051z M25.001,25.645
	c5.732,0,10.396-4.628,10.396-10.317C35.396,9.63,30.735,5,25.001,5c-5.732,0-10.393,4.629-10.393,10.323
	C14.609,21.016,19.269,25.645,25.001,25.645z"/>
</svg>
