<?xml version="1.0" encoding="utf-8"?>
<!-- Generator: Adobe Illustrator 14.0.0, SVG Export Plug-In . SVG Version: 6.00 Build 43363)  -->
<!DOCTYPE svg PUBLIC "-//W3C//DTD SVG 1.1//EN" "http://www.w3.org/Graphics/SVG/1.1/DTD/svg11.dtd">
<svg version="1.1" id="Layer_1" xmlns="http://www.w3.org/2000/svg" xmlns:xlink="http://www.w3.org/1999/xlink" x="0px" y="0px"
	 width="56px" height="40px" viewBox="-3 5 56 40" enable-background="new -3 5 56 40" xml:space="preserve">
<path id="path9-6_1_" d="M39.381,7H10.618C7.792,7,5.5,9.296,5.5,12.128v14.207c0,0.264,0.02,0.522,0.06,0.771
	C5.519,27.485,5.5,27.87,5.5,28.252C5.5,36.396,14.23,43,25,43c10.769,0,19.5-6.604,19.5-14.746c0-0.387-0.021-0.77-0.06-1.146
	c0.038-0.25,0.06-0.509,0.06-0.772V12.128C44.5,9.295,42.205,7,39.381,7L39.381,7z M36.956,21.281l-10.07,10.01
	c-0.511,0.508-1.186,0.761-1.855,0.755c-0.693,0.022-1.39-0.228-1.919-0.755l-10.068-10.01c-1.012-1.006-1.01-2.637,0-3.641
	c1.009-1.006,2.646-1.007,3.659,0L25,25.89l8.297-8.25c1.008-1.006,2.652-1.003,3.659,0C37.968,18.646,37.968,20.273,36.956,21.281z
	"/>
</svg>
