<?xml version="1.0" encoding="utf-8"?>
<!-- Generator: Adobe Illustrator 14.0.0, SVG Export Plug-In . SVG Version: 6.00 Build 43363)  -->
<!DOCTYPE svg PUBLIC "-//W3C//DTD SVG 1.1//EN" "http://www.w3.org/Graphics/SVG/1.1/DTD/svg11.dtd">
<svg version="1.1" id="Layer_1" xmlns="http://www.w3.org/2000/svg" xmlns:xlink="http://www.w3.org/1999/xlink" x="0px" y="0px"
	 width="56px" height="40px" viewBox="-3 5 56 40" enable-background="new -3 5 56 40" xml:space="preserve">
<path id="path9" d="M42.598,7.238L4.508,21.903c-2.6,1.042-2.584,2.489-0.476,3.134l9.5,2.958l3.635,11.123
	c0.442,1.219,0.224,1.699,1.505,1.699c0.989,0,1.427-0.449,1.978-0.986c0.349-0.341,2.428-2.356,4.75-4.61l9.881,7.288
	c1.816,1.003,3.132,0.482,3.584-1.688l6.487-30.507C46.015,7.655,44.336,6.449,42.598,7.238z M15.023,27.315l21.412-13.484
	c1.068-0.647,2.047-0.299,1.242,0.414L19.346,30.757l-0.713,7.599L15.023,27.315z"/>
</svg>
