<?xml version="1.0" encoding="utf-8"?>
<!-- Generator: Adobe Illustrator 14.0.0, SVG Export Plug-In . SVG Version: 6.00 Build 43363)  -->
<!DOCTYPE svg PUBLIC "-//W3C//DTD SVG 1.1//EN" "http://www.w3.org/Graphics/SVG/1.1/DTD/svg11.dtd">
<svg version="1.1" id="Layer_1" xmlns="http://www.w3.org/2000/svg" xmlns:xlink="http://www.w3.org/1999/xlink" x="0px" y="0px"
	 width="56px" height="40px" viewBox="-3 5 56 40" enable-background="new -3 5 56 40" xml:space="preserve">
<path d="M46.929,11.562c-1.146,1.653-2.532,3.089-4.158,4.287c-0.126,0.074-0.163,0.178-0.163,0.327
	c0.013,0.554,0.024,1.121,0.013,1.674c-0.037,1.474-0.215,2.924-0.505,4.364c-0.592,2.859-1.626,5.569-3.088,8.101
	c-1.411,2.448-3.164,4.614-5.268,6.48c-1.93,1.699-4.06,3.061-6.416,4.098c-1.953,0.829-3.982,1.424-6.086,1.753
	c-0.792,0.126-1.577,0.227-2.372,0.266c-0.062,0.014-0.174-0.053-0.189,0.089h-0.363c-0.09-0.075-0.178-0.066-0.268,0h-2.482
	c-0.051-0.066-0.113-0.075-0.176,0h-0.439c0-0.014,0.01-0.014,0.01-0.025l0.012-0.016c-0.073-0.062-0.16-0.062-0.238-0.062
	c-1.501-0.103-2.974-0.354-4.436-0.729c-2.334-0.605-4.525-1.525-6.606-2.736c-0.264-0.166-0.516-0.328-0.842-0.52
	c5,0.508,9.437-0.74,13.436-3.759c-4.692-0.186-7.615-3.448-8.457-6.312c1.345,0.226,2.671,0.202,3.994-0.165
	c-2.106-0.476-3.846-1.546-5.196-3.223c-1.358-1.677-2.003-3.619-2.003-5.799c0.646,0.353,1.288,0.616,1.956,0.808
	c0.681,0.186,1.375,0.3,2.117,0.312c-4.768-3.353-4.69-9.086-2.75-12.101c0.534,0.668,1.112,1.314,1.717,1.918
	c1.661,1.663,3.504,3.074,5.555,4.235c3.504,1.979,7.261,3.074,11.271,3.314c0.114,0.013,0.162-0.013,0.126-0.139
	c-0.103-0.456-0.166-0.908-0.19-1.363c-0.101-1.964,0.342-3.807,1.423-5.456c1.539-2.321,3.681-3.708,6.441-4.111
	c0.063,0,0.164,0.04,0.151-0.073h0.228c0.049,0.048,0.087,0.048,0.126,0h1.384c0.053,0.048,0.114,0.061,0.164,0h0.227
	c0,0.113,0.089,0.073,0.15,0.073c0.227,0.052,0.469,0.078,0.693,0.126c1.777,0.378,3.303,1.235,4.574,2.524
	c0.089,0.086,0.165,0.147,0.304,0.111c1.525-0.313,2.988-0.819,4.388-1.512c0.392-0.203,0.781-0.416,1.221-0.642
	c-0.351,1.057-0.855,1.992-1.525,2.835c-0.668,0.855-1.474,1.563-2.381,2.143c1.766-0.203,3.442-0.669,5.117-1.402
	C47.031,11.413,46.993,11.485,46.929,11.562L46.929,11.562z"/>
</svg>
