<?xml version="1.0" encoding="utf-8"?>
<!-- Generator: Adobe Illustrator 14.0.0, SVG Export Plug-In . SVG Version: 6.00 Build 43363)  -->
<!DOCTYPE svg PUBLIC "-//W3C//DTD SVG 1.1//EN" "http://www.w3.org/Graphics/SVG/1.1/DTD/svg11.dtd">
<svg version="1.1" id="Layer_1" xmlns="http://www.w3.org/2000/svg" xmlns:xlink="http://www.w3.org/1999/xlink" x="0px" y="0px"
	 width="56px" height="40px" viewBox="-3 5 56 40" enable-background="new -3 5 56 40" xml:space="preserve">
<path d="M24.424,42.355h3.228c0,0,0.975-0.123,1.47-0.729c0.463-0.562,0.444-1.613,0.444-1.613s-0.065-4.921,1.948-5.645
	c1.981-0.714,4.528,4.755,7.222,6.858c2.038,1.59,3.593,1.241,3.593,1.241l7.208-0.116c0,0,3.772-0.264,1.982-3.634
	c-0.146-0.272-1.041-2.492-5.359-7.046c-4.523-4.77-3.915-3.998,1.528-12.246c3.32-5.024,4.645-8.09,4.23-9.403
	c-0.396-1.251-2.837-0.92-2.837-0.92l-8.114,0.056c0,0-0.606-0.093-1.052,0.212c-0.435,0.293-0.716,0.989-0.716,0.989
	s-1.286,3.886-3.001,7.19c-3.614,6.974-5.062,7.343-5.656,6.909c-1.374-1.009-1.025-4.052-1.025-6.217
	c0-6.759,0.902-9.577-1.761-10.305c-0.881-0.242-1.532-0.404-3.79-0.429c-2.897-0.033-5.35,0.01-6.736,0.783
	c-0.924,0.513-1.639,1.659-1.202,1.723c0.535,0.082,1.752,0.373,2.395,1.37c0.833,1.287,0.804,4.174,0.804,4.174
	s0.477,7.956-1.116,8.946c-1.095,0.679-2.597-0.708-5.819-7.033c-1.653-3.241-2.898-6.824-2.898-6.824s-0.241-0.671-0.67-1.029
	c-0.52-0.434-1.247-0.571-1.247-0.571L-0.24,9.104c0,0-1.158,0.036-1.583,0.608c-0.378,0.509-0.03,1.561-0.03,1.561
	s6.04,16.054,12.88,24.148C17.302,42.844,24.424,42.355,24.424,42.355"/>
</svg>
